<?xml version="1.0" encoding="UTF-8"?>
<svg width="24px" height="24px" viewBox="0 0 24 24" version="1.1" xmlns="http://www.w3.org/2000/svg" xmlns:xlink="http://www.w3.org/1999/xlink">
    <title>Group 49</title>
    <g id="Web" stroke="none" stroke-width="1" fill="none" fill-rule="evenodd">
        <g id="DASHBOARD-LANDING" transform="translate(-954.000000, -571.000000)">
            <g id="Group-43" transform="translate(390.000000, 199.000000)">
                <g id="Group-40" transform="translate(0.000000, 198.000000)">
                    <g id="Group-18-Copy-2" transform="translate(540.000000, 0.000000)">
                        <g id="Group-25" transform="translate(24.000000, 104.000000)">
                            <g id="Group-49" transform="translate(0.000000, 70.000000)">
                                <rect id="Rectangle" fill="#17ECD4" x="0" y="0" width="24" height="24" rx="4"></rect>
                                <path d="M18.3777778,7.25555556 L19,6.63333333 C17.9111111,5.54444444 16.5111111,5 15.1111111,5 C13.7111111,5 12.3111111,5.54444444 11.2222222,6.63333333 L11.8444444,7.25555556 C12.7777778,6.4 13.9444444,5.93333333 15.1111111,5.93333333 C16.2777778,5.93333333 17.4444444,6.4 18.3777778,7.25555556 Z M17.6777778,7.87777778 C16.9777778,7.17777778 16.0444444,6.78888889 15.1111111,6.78888889 C14.1777778,6.78888889 13.2444444,7.17777778 12.5444444,7.87777778 L13.1666667,8.5 C13.7111111,7.95555556 14.4111111,7.72222222 15.1111111,7.72222222 C15.8111111,7.72222222 16.5111111,7.95555556 17.0555556,8.5 L17.6777778,7.87777778 L17.6777778,7.87777778 Z M17.4444444,12.7777778 L15.8888889,12.7777778 L15.8888889,9.66666667 L14.3333333,9.66666667 L14.3333333,12.7777778 L6.55555556,12.7777778 C5.7,12.7777778 5,13.4777778 5,14.3333333 L5,17.4444444 C5,18.3 5.7,19 6.55555556,19 L17.4444444,19 C18.3,19 19,18.3 19,17.4444444 L19,14.3333333 C19,13.4777778 18.3,12.7777778 17.4444444,12.7777778 Z M8.88888889,16.6666667 L7.33333333,16.6666667 L7.33333333,15.1111111 L8.88888889,15.1111111 L8.88888889,16.6666667 Z M11.6111111,16.6666667 L10.0555556,16.6666667 L10.0555556,15.1111111 L11.6111111,15.1111111 L11.6111111,16.6666667 Z M14.3333333,16.6666667 L12.7777778,16.6666667 L12.7777778,15.1111111 L14.3333333,15.1111111 L14.3333333,16.6666667 Z" id="Shape" fill="#FFFFFF" fill-rule="nonzero"></path>
                            </g>
                        </g>
                    </g>
                </g>
            </g>
        </g>
    </g>
</svg>