<?xml version="1.0" encoding="UTF-8"?>
<svg width="109px" height="24px" viewBox="0 0 109 24" version="1.1" xmlns="http://www.w3.org/2000/svg" xmlns:xlink="http://www.w3.org/1999/xlink">
    <title>Combined Shape</title>
    <g id="Web" stroke="none" stroke-width="1" fill="none" fill-rule="evenodd">
        <g id="Group-10" transform="translate(-32.000000, -844.000000)" fill="#8397AB">
            <path d="M41.5999152,844.000212 C46.3306359,844.000212 49.8949259,847.865471 49.8949259,853.000309 C49.8949259,858.13656 46.3306359,862.000406 41.6182842,862.000406 C39.3242803,862.000406 37.700038,861.101032 36.5880078,859.777052 L36.5880078,859.777052 L36.5880078,867.999294 L32,868 L32,844.45873 L36.4996953,844.45873 L36.4996953,846.347203 C37.612432,844.952573 39.2536304,844.000212 41.5999152,844.000212 Z M112.941175,844.000212 C117.671896,844.000212 121.236186,847.865471 121.236186,853.000309 C121.236186,858.13656 117.671896,862.000406 112.959544,862.000406 C110.66554,862.000406 109.041298,861.101032 107.929268,859.777052 L107.929268,859.777052 L107.929268,867.999294 L103.34126,867.999294 L103.34126,844.45873 L107.840955,844.45873 L107.840955,846.347203 C108.953692,844.952573 110.59489,844.000212 112.941175,844.000212 Z M74.3067444,844.000212 C79.6358702,844.000212 83.5717789,847.847102 83.5717789,853.000309 C83.5717789,858.153516 79.6358702,862.000406 74.3067444,862.000406 C68.9938682,862.000406 65.0770349,858.153516 65.0770349,853.000309 C65.0770349,847.847102 68.9938682,844.000212 74.3067444,844.000212 Z M92.9981072,844.018157 C95.7336732,844.018157 97.8687147,844.528956 100.145763,845.641693 L100.145763,845.641693 L98.5921702,849.223645 C97.2335717,848.553177 95.0632052,847.847384 93.1387006,847.829722 C91.3915273,847.829722 90.5091094,848.447202 90.5091094,849.382608 C90.5091094,850.371001 91.7447771,850.618275 93.2983695,850.847888 L93.2983695,850.847888 L94.8152239,851.076794 C98.5215203,851.641993 100.586618,853.300147 100.586618,856.194676 C100.586618,859.724347 97.6920899,862.000689 92.7331699,862.000689 C90.403841,862.000689 87.3510567,861.559833 85.1269962,859.988578 L85.1269962,859.988578 L86.9441129,856.494938 C88.4093929,857.465669 90.1918912,858.171462 92.7684948,858.171462 C94.9035363,858.171462 95.9272541,857.570937 95.9272541,856.565588 C95.9272541,855.736158 95.0632052,855.276933 93.0864196,854.99504 L93.0864196,854.99504 L91.6917896,854.800752 C87.7382184,854.253215 85.7798018,852.524411 85.7798018,849.61222 C85.7798018,846.100211 88.4977053,844.018157 92.9981072,844.018157 Z M131.333265,844.000212 C133.680962,844.000212 135.321454,844.952573 136.451147,846.347203 L136.451147,846.347203 L136.451147,844.45873 L140.951549,844.45873 L140.951549,861.559551 L136.451147,861.559551 L136.451147,859.671077 C135.339823,861.048045 133.680962,862.000406 131.333265,862.000406 C126.621619,862.000406 123.056623,858.13656 123.056623,853.000309 C123.056623,847.865471 126.621619,844.000212 131.333265,844.000212 Z M62.0572441,844 C63.0456369,844 63.8213734,844.1413 64.4572229,844.370912 L64.4572229,844.370912 L63.7683859,848.941258 C63.0103119,848.606377 61.9159442,848.394427 60.9805389,848.394427 C58.8447909,848.394427 57.3802174,849.700038 57.3802174,852.241317 L57.3802174,852.241317 L57.3802174,861.560045 L52.7745472,861.560045 L52.7745472,844.459225 L57.2389175,844.459225 L57.2389175,846.329329 C58.3156228,844.724162 59.9575276,844 62.0572441,844 Z M40.7535288,848.287957 C38.1416002,848.287957 36.3591019,850.300068 36.3591019,853.000309 C36.3591019,855.70055 38.1416002,857.712661 40.7535288,857.712661 C43.4714324,857.712661 45.1656182,855.612238 45.1656182,853.000309 C45.1656182,850.38838 43.4714324,848.287957 40.7535288,848.287957 Z M74.3067444,848.287957 C71.7117718,848.287957 69.7710176,850.229418 69.7710176,853.000309 C69.7710176,855.7712 71.7117718,857.712661 74.3067444,857.712661 C76.9010106,857.712661 78.8594272,855.7712 78.8594272,853.000309 C78.8594272,850.229418 76.9010106,848.287957 74.3067444,848.287957 Z M112.094789,848.287957 C109.48286,848.287957 107.700362,850.300068 107.700362,853.000309 C107.700362,855.70055 109.48286,857.712661 112.094789,857.712661 C114.812692,857.712661 116.506878,855.612238 116.506878,853.000309 C116.506878,850.38838 114.812692,848.287957 112.094789,848.287957 Z M132.180358,848.287957 C129.480823,848.287957 127.768975,850.38838 127.768975,853.000309 C127.768975,855.612238 129.480823,857.712661 132.180358,857.712661 C134.810655,857.712661 136.592447,855.70055 136.592447,853.000309 C136.592447,850.300068 134.810655,848.287957 132.180358,848.287957 Z" id="Combined-Shape"></path>
        </g>
    </g>
</svg>