<?xml version="1.0" encoding="UTF-8"?>
<svg width="24px" height="24px" viewBox="0 0 24 24" version="1.1" xmlns="http://www.w3.org/2000/svg" xmlns:xlink="http://www.w3.org/1999/xlink">
    <title>Group 51</title>
    <g id="Web" stroke="none" stroke-width="1" fill="none" fill-rule="evenodd">
        <g id="DASHBOARD-LANDING" transform="translate(-954.000000, -641.000000)">
            <g id="Group-43" transform="translate(390.000000, 199.000000)">
                <g id="Group-40" transform="translate(0.000000, 198.000000)">
                    <g id="Group-18-Copy-2" transform="translate(540.000000, 0.000000)">
                        <g id="Group-25" transform="translate(24.000000, 104.000000)">
                            <g id="Group-51" transform="translate(0.000000, 140.000000)">
                                <rect id="Rectangle" fill="#C155FF" x="0" y="0" width="24" height="24" rx="4"></rect>
                                <path d="M13.1681471,14.8148673 L13.6417732,15.2888371 C14.1905244,15.836682 14.1923369,16.726809 13.6417419,17.2773102 L13.6417419,17.2773102 L13.0040843,17.9149678 L13.5044291,18.3997501 C13.8701799,18.7655321 13.8701799,19.3601584 13.5044291,19.7259092 C13.1380533,20.0923163 12.5421458,20.0902538 12.1792075,19.726378 L12.1792075,19.726378 L10.0524216,17.6655297 L11.3781745,16.3397769 L12.3307391,17.2626851 L12.978928,16.6144962 C13.1628659,16.4295896 13.1615846,16.1338389 12.978928,15.9521198 L12.978928,15.9521198 L12.4133017,15.3856498 C12.6563648,15.1817743 12.9063653,14.9907114 13.1681471,14.8148673 L13.1681471,14.8148673 Z M7.73247905,12.0309237 L11.0469238,15.3453372 L8.72673121,17.6655297 C8.17616751,18.2160622 7.28604058,18.2138122 6.73775813,17.6655297 L6.73775813,17.6655297 L5.41206775,16.3398394 C4.86150405,15.7892757 4.8637853,14.8991487 5.41206775,14.3508663 L5.41206775,14.3508663 L7.73247905,12.0309237 Z M8.72676246,14.351335 C8.54366831,14.1682409 8.24701142,14.1682409 8.06391727,14.351335 L8.06391727,14.351335 L7.40107208,15.0141802 C7.21797793,15.1972744 7.21797793,15.4939313 7.40107208,15.6770254 C7.58416623,15.8601196 7.88082312,15.8601196 8.06391727,15.6770254 L8.06391727,15.6770254 L8.72676246,15.0141802 C8.90985661,14.8310861 8.90985661,14.5344292 8.72676246,14.351335 Z M10.6243603,6.59078689 L16.4657481,12.4317059 L16.2298725,12.4786747 C14.5748689,12.8099254 13.0243031,13.6355835 11.7501753,14.7228983 L11.7501753,14.7228983 L8.35494915,11.3276722 C9.44248277,10.0533882 10.246547,8.481166 10.5773915,6.8262249 L10.5773915,6.8262249 L10.6243603,6.59078689 Z M11.0873301,4.40143837 C11.4505496,4.03912509 12.0458947,4.03478133 12.4139267,4.40190712 L12.4139267,4.40190712 L18.6541903,10.643077 C19.0208161,11.0096403 19.0208161,11.6021415 18.6541903,11.9687673 C18.2885333,12.3343931 17.6941257,12.3343931 17.3284999,11.9687673 L17.3284999,11.9687673 L11.0873301,5.72803501 C10.7220481,5.36228422 10.7220481,4.76765792 11.0873301,4.40143837 Z M18.6477841,7.75000816 C18.9068784,7.75000816 19.1165351,7.95966487 19.1165351,8.21875918 C19.1165351,8.4778535 18.9068784,8.6875102 18.6477841,8.6875102 L18.6477841,8.6875102 L17.710282,8.6875102 C17.4511877,8.6875102 17.241531,8.4778535 17.241531,8.21875918 C17.241531,7.95966487 17.4511877,7.75000816 17.710282,7.75000816 L17.710282,7.75000816 Z M17.3788438,5.07481484 C17.5619379,4.89172069 17.8585948,4.89172069 18.041689,5.07481484 C18.2247831,5.25790899 18.2247831,5.55456588 18.041689,5.73766003 L18.041689,5.73766003 L17.1041869,6.67516207 C16.9210928,6.85828747 16.6244359,6.85825622 16.4413418,6.67516207 C16.2582476,6.49206792 16.2582476,6.19541103 16.4413418,6.01231688 L16.4413418,6.01231688 Z M14.8977759,4 C15.1568702,4 15.3665269,4.20965671 15.3665269,4.46875102 L15.3665269,4.46875102 L15.3665269,5.40625306 C15.3665269,5.66534738 15.1568702,5.87500408 14.8977759,5.87500408 C14.6386816,5.87500408 14.4290249,5.66534738 14.4290249,5.40625306 L14.4290249,5.40625306 L14.4290249,4.46875102 C14.4290249,4.20965671 14.6386816,4 14.8977759,4 Z" id="Combined-Shape" fill="#FFFFFF" fill-rule="nonzero"></path>
                            </g>
                        </g>
                    </g>
                </g>
            </g>
        </g>
    </g>
</svg>