<?xml version="1.0" encoding="UTF-8"?>
<svg width="24px" height="24px" viewBox="0 0 24 24" version="1.1" xmlns="http://www.w3.org/2000/svg" xmlns:xlink="http://www.w3.org/1999/xlink">
    <title>Group</title>
    <g id="Web" stroke="none" stroke-width="1" fill="none" fill-rule="evenodd">
        <g id="DASHBOARD-LANDING" transform="translate(-32.000000, -281.000000)">
            <g id="Group-12" transform="translate(32.000000, 116.000000)">
                <g id="Group" transform="translate(0.000000, 165.000000)">
                    <path d="M8.54233526,12.9916301 L10.891422,15.3407168 L2.34908671,23.883052 L-1.22373223e-12,21.534104 L8.54233526,12.9916301 Z M21.5730867,16.3089017 C22.5321156,16.3089017 23.3096879,17.0863353 23.3096879,18.0455029 C23.3096879,19.0046705 22.5321156,19.782104 21.5730867,19.782104 C20.6137803,19.782104 19.8363468,19.0046705 19.8363468,18.0455029 C19.8363468,17.0863353 20.6137803,16.3089017 21.5730867,16.3089017 Z M21.2709364,6.26677457 C22.1051098,6.26677457 22.7811329,6.94293642 22.7811329,7.77683237 C22.7811329,8.61100578 22.1051098,9.2870289 21.2709364,9.2870289 C20.4369017,9.2870289 19.7608786,8.61100578 19.7608786,7.77683237 C19.7608786,6.94293642 20.4369017,6.26677457 21.2709364,6.26677457 Z M13.8715838,-7.29238891e-13 C14.8306127,-7.29238891e-13 15.608185,0.777433526 15.608185,1.73660116 C15.608185,2.69576879 14.8306127,3.47320231 13.8715838,3.47320231 C12.9124162,3.47320231 12.1349827,2.69576879 12.1349827,1.73660116 C12.1349827,0.777433526 12.9124162,-7.29238891e-13 13.8715838,-7.29238891e-13 Z" id="Combined-Shape" fill="#B5C1CD"></path>
                    <polygon id="Fill-51" fill="#8397AB" points="16.1094104 11.0270983 19.5427977 15.6278844 13.8024971 15.5546358 10.488 20.2412948 8.78427746 14.7595838 3.30242775 13.0557225 7.98922543 9.74122543 7.91583815 4.00092486 12.5166243 7.43431214 17.9529711 5.59089017"></polygon>
                </g>
            </g>
        </g>
    </g>
</svg>