<?xml version="1.0" encoding="UTF-8"?>
<svg width="14px" height="16px" viewBox="0 0 14 16" version="1.1" xmlns="http://www.w3.org/2000/svg" xmlns:xlink="http://www.w3.org/1999/xlink">
    <title>Shape</title>
    <g id="Web" stroke="none" stroke-width="1" fill="none" fill-rule="evenodd">
        <g id="DASHBOARD-LANDING" transform="translate(-1263.000000, -32.000000)" fill="#8397AB" fill-rule="nonzero">
            <g id="Group-9" transform="translate(390.000000, 20.000000)">
                <g id="Group-11" transform="translate(864.000000, 4.000000)">
                    <path d="M15.5641026,24 C16.4666667,24 17.2051282,23.2615385 17.2051282,22.3589744 L13.9230769,22.3589744 C13.9230769,23.2615385 14.6533333,24 15.5641026,24 Z M20.4871795,19.0769231 L20.4871795,14.974359 C20.4871795,12.4553846 19.1415385,10.3466667 16.7948718,9.78871795 L16.7948718,9.23076923 C16.7948718,8.54974359 16.2451282,8 15.5641026,8 C14.8830769,8 14.3333333,8.54974359 14.3333333,9.23076923 L14.3333333,9.78871795 C11.9784615,10.3466667 10.6410256,12.4471795 10.6410256,14.974359 L10.6410256,19.0769231 L9,20.7179487 L9,21.5384615 L22.1282051,21.5384615 L22.1282051,20.7179487 L20.4871795,19.0769231 Z" id="Shape"></path>
                </g>
            </g>
        </g>
    </g>
</svg>