<?xml version="1.0" encoding="UTF-8"?>
<svg width="109px" height="24px" viewBox="0 0 109 24" version="1.1" xmlns="http://www.w3.org/2000/svg" xmlns:xlink="http://www.w3.org/1999/xlink">
    <title>Combined Shape</title>
    <g id="Web" stroke="none" stroke-width="1" fill="none" fill-rule="evenodd">
        <g id="Group-10" transform="translate(-32.000000, -32.000000)" fill="#FFFFFF">
            <path d="M41.5999152,32.0002119 C46.3306359,32.0002119 49.8949259,35.8654707 49.8949259,41.0003091 C49.8949259,46.1365605 46.3306359,50.0004062 41.6182842,50.0004062 C39.3242803,50.0004062 37.700038,49.1010324 36.5880078,47.7770523 L36.5880078,47.7770523 L36.5880078,55.9992935 L32,56 L32,32.4587301 L36.4996953,32.4587301 L36.4996953,34.3472033 C37.612432,32.9525733 39.2536304,32.0002119 41.5999152,32.0002119 Z M112.941175,32.0002119 C117.671896,32.0002119 121.236186,35.8654707 121.236186,41.0003091 C121.236186,46.1365605 117.671896,50.0004062 112.959544,50.0004062 C110.66554,50.0004062 109.041298,49.1010324 107.929268,47.7770523 L107.929268,47.7770523 L107.929268,55.9992935 L103.34126,55.9992935 L103.34126,32.4587301 L107.840955,32.4587301 L107.840955,34.3472033 C108.953692,32.9525733 110.59489,32.0002119 112.941175,32.0002119 Z M74.3067444,32.0002119 C79.6358702,32.0002119 83.5717789,35.8471017 83.5717789,41.0003091 C83.5717789,46.1535165 79.6358702,50.0004062 74.3067444,50.0004062 C68.9938682,50.0004062 65.0770349,46.1535165 65.0770349,41.0003091 C65.0770349,35.8471017 68.9938682,32.0002119 74.3067444,32.0002119 Z M92.9981072,32.018157 C95.7336732,32.018157 97.8687147,32.5289562 100.145763,33.6416929 L100.145763,33.6416929 L98.5921702,37.2236454 C97.2335717,36.5531773 95.0632052,35.8473843 93.1387006,35.8297218 C91.3915273,35.8297218 90.5091094,36.4472024 90.5091094,37.3826077 C90.5091094,38.3710006 91.7447771,38.6182754 93.2983695,38.8478877 L93.2983695,38.8478877 L94.8152239,39.0767936 C98.5215203,39.6419932 100.586618,41.3001475 100.586618,44.1946759 C100.586618,47.7243474 97.6920899,50.0006888 92.7331699,50.0006888 C90.403841,50.0006888 87.3510567,49.5598331 85.1269962,47.9885783 L85.1269962,47.9885783 L86.9441129,44.4949382 C88.4093929,45.4656685 90.1918912,46.1714615 92.7684948,46.1714615 C94.9035363,46.1714615 95.9272541,45.570937 95.9272541,44.5655882 C95.9272541,43.7361578 95.0632052,43.2769331 93.0864196,42.9950398 L93.0864196,42.9950398 L91.6917896,42.8007524 C87.7382184,42.2532153 85.7798018,40.524411 85.7798018,37.6122201 C85.7798018,34.1002111 88.4977053,32.018157 92.9981072,32.018157 Z M131.333265,32.0002119 C133.680962,32.0002119 135.321454,32.9525733 136.451147,34.3472033 L136.451147,34.3472033 L136.451147,32.4587301 L140.951549,32.4587301 L140.951549,49.5595505 L136.451147,49.5595505 L136.451147,47.6710774 C135.339823,49.0480449 133.680962,50.0004062 131.333265,50.0004062 C126.621619,50.0004062 123.056623,46.1365605 123.056623,41.0003091 C123.056623,35.8654707 126.621619,32.0002119 131.333265,32.0002119 Z M62.0572441,32 C63.0456369,32 63.8213734,32.1412999 64.4572229,32.3709122 L64.4572229,32.3709122 L63.7683859,36.9412575 C63.0103119,36.6063767 61.9159442,36.3944269 60.9805389,36.3944269 C58.8447909,36.3944269 57.3802174,37.700038 57.3802174,40.2413167 L57.3802174,40.2413167 L57.3802174,49.5600451 L52.7745472,49.5600451 L52.7745472,32.4592247 L57.2389175,32.4592247 L57.2389175,34.3293289 C58.3156228,32.724162 59.9575276,32 62.0572441,32 Z M40.7535288,36.2879574 C38.1416002,36.2879574 36.3591019,38.300068 36.3591019,41.0003091 C36.3591019,43.7005502 38.1416002,45.7126608 40.7535288,45.7126608 C43.4714324,45.7126608 45.1656182,43.6122377 45.1656182,41.0003091 C45.1656182,38.3883804 43.4714324,36.2879574 40.7535288,36.2879574 Z M74.3067444,36.2879574 C71.7117718,36.2879574 69.7710176,38.2294181 69.7710176,41.0003091 C69.7710176,43.7712001 71.7117718,45.7126608 74.3067444,45.7126608 C76.9010106,45.7126608 78.8594272,43.7712001 78.8594272,41.0003091 C78.8594272,38.2294181 76.9010106,36.2879574 74.3067444,36.2879574 Z M112.094789,36.2879574 C109.48286,36.2879574 107.700362,38.300068 107.700362,41.0003091 C107.700362,43.7005502 109.48286,45.7126608 112.094789,45.7126608 C114.812692,45.7126608 116.506878,43.6122377 116.506878,41.0003091 C116.506878,38.3883804 114.812692,36.2879574 112.094789,36.2879574 Z M132.180358,36.2879574 C129.480823,36.2879574 127.768975,38.3883804 127.768975,41.0003091 C127.768975,43.6122377 129.480823,45.7126608 132.180358,45.7126608 C134.810655,45.7126608 136.592447,43.7005502 136.592447,41.0003091 C136.592447,38.300068 134.810655,36.2879574 132.180358,36.2879574 Z" id="Combined-Shape"></path>
        </g>
    </g>
</svg>